<?xml version="1.0" encoding="UTF-8" standalone="no"?>
<svg width="122px" height="86px" viewBox="0 0 122 86" version="1.1" xmlns="http://www.w3.org/2000/svg" xmlns:xlink="http://www.w3.org/1999/xlink" xmlns:sketch="http://www.bohemiancoding.com/sketch/ns">
    <!-- Generator: Sketch 3.4.1 (15681) - http://www.bohemiancoding.com/sketch -->
    <title>App Icon</title>
    <desc>Created with Sketch.</desc>
    <defs>
        <filter x="-50%" y="-50%" width="200%" height="200%" filterUnits="objectBoundingBox" id="filter-1">
            <feMorphology radius="1" in="SourceAlpha" operator="dilate" result="shadowSpreadInner1"></feMorphology>
            <feOffset dx="0" dy="0" in="shadowSpreadInner1" result="shadowOffsetInner1"></feOffset>
            <feGaussianBlur stdDeviation="0" in="shadowOffsetInner1" result="shadowBlurInner1"></feGaussianBlur>
            <feComposite in="shadowBlurInner1" in2="SourceAlpha" operator="arithmetic" k2="-1" k3="1" result="shadowInnerInner1"></feComposite>
            <feColorMatrix values="0 0 0 0 0   0 0 0 0 0   0 0 0 0 0  0 0 0 0.07 0" in="shadowInnerInner1" type="matrix" result="shadowMatrixInner1"></feColorMatrix>
            <feMerge>
                <feMergeNode in="SourceGraphic"></feMergeNode>
                <feMergeNode in="shadowMatrixInner1"></feMergeNode>
            </feMerge>
        </filter>
    </defs>
    <g id="App-Center" stroke="none" stroke-width="1" fill="none" fill-rule="evenodd" sketch:type="MSPage">
        <g id="1.0-All-Apps" sketch:type="MSArtboardGroup" transform="translate(-61.000000, -640.000000)">
            <g id="All-Apps" sketch:type="MSLayerGroup" transform="translate(40.000000, 574.000000)">
                <g id="E-Commerce" sketch:type="MSShapeGroup">
                    <g id="Shippo" transform="translate(0.000000, 45.000000)">
                        <g id="App-Icon" transform="translate(21.000000, 21.000000)">
                            <rect id="App-Icon-Bg" fill="#97BF50" filter="url(#filter-1)" x="0" y="0" width="122" height="86" rx="4"></rect>
                            <path d="M81.8435529,52.9448011 C80.9157112,53.3243935 79.8998529,53.8267035 78.824269,54.4158517 C78.1206601,55.4256715 77.3222238,56.3684126 76.4504403,57.2310754 C72.6851109,60.9157217 67.808048,62.8448831 62.8843573,63.0117998 C68.5252786,58.6527269 75.5749894,53.5667087 80.5720273,51.3853523 C80.722389,51.3198336 80.8774659,51.249635 81.0241602,51.1887962 C86.7216636,48.851963 88.7402825,42.8330833 86.0840671,37.5817084 C84.6689907,34.7857243 82.1437524,32.9085618 79.230298,32.1873363 C78.5518367,32.0188596 77.8508473,31.9143417 77.1404276,31.8748225 C76.9685856,31.8659827 76.7967437,31.8592228 76.6254257,31.8592228 C76.612328,31.8571429 76.600802,31.8571429 76.5866565,31.8571429 C75.0081206,31.8592228 73.3861003,32.1821364 71.8206621,32.8633227 C71.0746166,33.1867563 70.346384,33.5460691 69.6113406,33.8908222 C67.9301187,34.949521 66.1996494,35.4653507 64.3864026,35.5313894 C64.3691136,35.5313894 64.3518246,35.5329493 64.3298205,35.5329493 C64.2218953,35.5365893 64.109779,35.5433491 63.9976626,35.5433491 C63.9384609,35.5433491 63.8818788,35.5417892 63.8221533,35.5397092 C63.7697624,35.5397092 63.7173716,35.5381492 63.6649808,35.5365893 C63.5842989,35.5350293 63.5004735,35.5313894 63.4197916,35.5272295 C62.3232515,35.4793904 61.199468,35.2786744 60.033248,34.9313214 C59.51877,34.7789644 58.9649989,34.7155257 58.4012735,34.7051259 C58.3766498,34.7051259 58.3556935,34.7035659 58.3347371,34.7035659 C57.3613154,34.7035659 56.3522679,34.8548829 55.4034699,34.9838403 L52.7661152,35.3447131 C52.7624479,35.3395132 52.7593044,35.3363933 52.756161,35.3311934 L52.6791464,35.3415932 C51.9110968,34.5418492 50.7846938,33.8294634 50.1465734,33.4025519 C49.9506317,33.2704746 49.7410684,33.2075558 49.5451266,33.1955961 C49.3654261,33.199236 49.1977754,33.249675 49.0757048,33.3380732 C48.0352228,34.1112978 48.6869648,37.2863543 49.1170935,38.0200596 C49.1170935,38.0200596 49.2606444,38.5795684 49.4990227,39.099038 C49.1972515,39.4885102 48.9593971,39.9440211 48.8158462,40.4057719 C48.5879461,41.147797 45.47855,44.5838883 42.5436154,47.7038259 C40.9514579,41.1217976 42.7474157,33.899662 47.930965,28.7793244 C55.8409334,20.9675206 68.6939771,21.0527989 76.555222,28.8958021 L76.5630806,28.8890422 C76.9198622,29.248355 77.269833,29.6149477 77.5993713,30.00078 C81.6795696,30.3049739 85.2824874,32.4566909 87.3660709,35.8210236 C84.2173817,24.9662407 74.1284784,17 62.19437,17 C57.8134483,17 53.6840027,18.0774185 50.0486026,19.9738205 C50.0486026,19.9753805 50.045983,19.9753805 50.0423157,19.9769405 C49.6635299,20.1729765 49.2926028,20.3799324 48.9284865,20.5941681 C48.9216757,20.597808 48.9174844,20.599368 48.9148649,20.600928 C46.2534104,22.1634967 43.8884881,24.1742965 41.9353578,26.5360893 C41.8373869,26.6577668 41.7430834,26.7846443 41.6409213,26.9063219 C41.4795575,27.1096378 41.3187176,27.3113938 41.1652125,27.5178296 C41.0143269,27.7159457 40.8739194,27.9192616 40.7308925,28.1189376 C40.6323977,28.2598548 40.5312834,28.3971321 40.436456,28.5396092 C40.2829508,28.7652847 40.138876,28.9946001 39.9921817,29.2244355 C39.9109759,29.351313 39.8308179,29.4781904 39.750136,29.6066279 C39.6139198,29.8343833 39.4839906,30.0652587 39.3509178,30.2950941 C39.270236,30.4354913 39.1895541,30.5748485 39.1125395,30.7173257 C38.9972797,30.9294814 38.892498,31.1431971 38.7835251,31.3584728 C38.6960324,31.5285094 38.6085397,31.699066 38.5247144,31.8727425 C38.4366978,32.0536989 38.3565398,32.2362153 38.2758579,32.4182116 C38.1773631,32.6340073 38.0830596,32.8472031 37.9918996,33.0645587 C37.932174,33.2039159 37.8797832,33.3427531 37.8242489,33.4836703 C37.7194672,33.749385 37.6141616,34.0156197 37.5156669,34.2865343 C37.4842324,34.3754525 37.4564652,34.4654107 37.4245068,34.5548489 C37.3129143,34.8756825 37.2076088,35.199116 37.1059705,35.5272295 C37.0954924,35.5605088 37.0886816,35.5922282 37.0776795,35.6249875 C36.3814053,37.9654607 36,40.4385312 36,43.00052 C36,45.6410272 36.4028855,48.1920962 37.1415963,50.5944481 C37.3443488,51.2470351 37.5759163,51.8876622 37.8247728,52.5189296 C37.8268684,52.5173697 37.8268684,52.5152897 37.8268684,52.5152897 C37.8378705,52.5376492 37.8452052,52.5600088 37.852016,52.5834083 L37.852016,52.5844483 C37.8630181,52.6088878 37.8734963,52.6322874 37.8803071,52.6556869 C37.9049308,52.7097658 37.9253632,52.7622848 37.9463195,52.8158437 C38.0903943,53.1652767 38.240756,53.5131497 38.3984525,53.8558229 C38.4021198,53.8625827 38.4057872,53.8714226 38.4120741,53.8776624 C38.4576541,53.9775004 38.4995668,54.0778584 38.5456707,54.1750965 L38.566627,54.1974561 C38.5949181,54.249975 38.6226852,54.3035339 38.646785,54.3581328 L38.6226852,54.3336933 C38.7196083,54.5302494 38.8212465,54.7210856 38.9234086,54.9134817 C38.9511758,54.9644407 38.9763234,55.0159197 39.0035666,55.0663587 C39.1790759,55.402272 39.3640156,55.7324654 39.5573377,56.0584988 C39.5741028,56.0912582 39.5919157,56.1229775 39.6133959,56.1552169 C40.2714248,57.2669547 41.013803,58.3251335 41.8290044,59.3235135 C41.836863,59.3323534 41.8431499,59.3417132 41.8499607,59.348993 C42.1161062,59.6776264 42.3932537,59.99898 42.6766881,60.3120138 C42.694501,60.3317734 42.71179,60.348413 42.7254116,60.3676526 C43.0161807,60.6832863 43.3106172,60.9947601 43.6155319,61.298434 C43.6191992,61.3025939 43.6223427,61.3041539 43.62601,61.3062339 C43.62601,61.3093538 43.6296774,61.3114338 43.6296774,61.3135137 C44.8624338,62.5432891 46.2167369,63.652427 47.6784412,64.6201276 C47.7276886,64.6534069 47.7795555,64.6866863 47.8324702,64.7189256 C48.1232394,64.9102818 48.417152,65.0943581 48.714208,65.2727145 C48.8027485,65.3241935 48.8902412,65.3761925 48.9777339,65.4261115 C49.2470228,65.5826283 49.520503,65.7355053 49.7971266,65.8831823 C49.8914301,65.9351813 49.9894009,65.9861403 50.0842283,66.0360593 C50.3639954,66.1806164 50.6442864,66.3194536 50.9282447,66.4536109 C51.0157374,66.4957301 51.1032301,66.5388892 51.1901989,66.5789284 C51.2886937,66.6241675 51.3824733,66.6730465 51.480968,66.7162057 L51.4605356,66.6969661 C51.5134503,66.7214056 51.5689846,66.7437651 51.6218994,66.7666447 L51.6465231,66.7910842 C51.8105064,66.8628427 51.9792049,66.9288814 52.1468555,66.9959601 C52.2133919,67.0240395 52.2794044,67.051079 52.3464646,67.0796784 C52.6723356,67.2122758 53.001874,67.3365533 53.3345558,67.4551109 C53.3969009,67.4764305 53.4566264,67.49827 53.516352,67.5195896 C53.8532251,67.6376272 54.1927177,67.7473451 54.5322103,67.851863 C54.5914119,67.8685026 54.6511375,67.8882622 54.710863,67.9054219 C55.054023,68.0078598 55.3977069,68.099898 55.7440103,68.1877762 C55.8037359,68.202336 55.8629375,68.2200156 55.9226631,68.2340553 C56.0169666,68.2569349 56.1112701,68.2855343 56.2066214,68.3073739 C56.2092409,68.3037339 56.2134322,68.301654 56.2170996,68.298534 C56.2380559,68.3037339 56.2626796,68.3089338 56.2873033,68.3136137 C56.283112,68.3177736 56.2794447,68.3208936 56.2763012,68.3234935 C56.4795776,68.3697726 56.6859975,68.4082518 56.8929413,68.449331 C56.9945796,68.4706506 57.0998851,68.4935301 57.2041429,68.5143297 C57.4985794,68.5694486 57.7930159,68.6198876 58.0874524,68.6651267 C58.2168578,68.6859263 58.3425958,68.7067259 58.472525,68.7254455 C58.5673524,68.7374053 58.661132,68.7576848 58.7554355,68.7696446 C59.8834102,68.9168017 61.0291978,69 62.1948939,69 C75.1129023,69 85.8713603,59.6677466 88,47.4422712 C86.7394765,49.8862223 84.5925001,51.8169437 81.8435529,52.9448011 L81.8435529,52.9448011 Z M58.0736483,39.0031995 C58.3331822,38.2201257 59.178285,37.8096794 59.9669518,38.0862765 C60.7502265,38.3639859 61.1830227,39.2189897 60.9256456,39.9998388 C60.6686279,40.7814294 59.8231657,41.1892803 59.0344989,40.9141663 C58.2461916,40.6390523 57.8187874,39.7836778 58.0736483,39.0031995 L58.0736483,39.0031995 Z" id="Logo" fill="#FFFFFF"></path>
                        </g>
                    </g>
                </g>
            </g>
        </g>
    </g>
</svg>