<?xml version="1.0" encoding="UTF-8" standalone="no"?>
<svg width="10px" height="11px" viewBox="0 0 10 11" version="1.1" xmlns="http://www.w3.org/2000/svg" xmlns:xlink="http://www.w3.org/1999/xlink" xmlns:sketch="http://www.bohemiancoding.com/sketch/ns">
    <!-- Generator: Sketch 3.4.1 (15681) - http://www.bohemiancoding.com/sketch -->
    <title>Path</title>
    <desc>Created with Sketch.</desc>
    <defs></defs>
    <g id="App-Page" stroke="none" stroke-width="1" fill="none" fill-rule="evenodd" sketch:type="MSPage">
        <g sketch:type="MSArtboardGroup" transform="translate(-1083.000000, -506.000000)" id="Card" stroke="#C9CDCF" stroke-width="2">
            <g sketch:type="MSLayerGroup" transform="translate(928.000000, 95.000000)">
                <g id="List" transform="translate(40.000000, 355.000000)" sketch:type="MSShapeGroup">
                    <g id="Support" transform="translate(0.000000, 49.000000)">
                        <g id="Form_Phone" transform="translate(110.000000, 2.000000)">
                            <path d="M14,14.2 C13.8,14.4 13.6,14.6 13.4,14.7 C12.9,15 12.2,15.2 11.5,15.2 C10.8,15.2 10.2,14.9 9.7,14.7 C8.7,14.2 7.9,13.4 7.1,12.5 C6.3,11.7 5.6,10.7 5.2,9.6 C4.8,8.2 5,6.8 5.8,5.9 C5.9,5.7 6.1,5.6 6.3,5.4 C6.5,5.3 6.7,5.1 6.9,5 C7.5,4.9 7.9,5.6 8.2,6 C8.5,6.5 8.9,7 8.7,7.6 C8.7,8 8.4,8.1 8.1,8.3 C7.9,8.5 7.6,8.7 7.5,9 C7.4,9.5 7.7,10 7.8,10.3 C8.2,11 8.7,11.5 9.4,12.1 C9.7,12.4 10.1,12.7 10.6,12.6 C11.2,12.5 11.4,11.7 12.1,11.6 C12.8,11.5 13.2,12 13.6,12.3 C14,12.6 14.6,13 14.5,13.5 C14.5,13.8 14.3,14 14,14.2 Z" id="Path"></path>
                        </g>
                    </g>
                </g>
            </g>
        </g>
    </g>
</svg>