<?xml version="1.0" encoding="UTF-8" standalone="no"?>
<svg width="20px" height="20px" viewBox="0 0 20 20" version="1.1" xmlns="http://www.w3.org/2000/svg" xmlns:xlink="http://www.w3.org/1999/xlink" xmlns:sketch="http://www.bohemiancoding.com/sketch/ns">
    <!-- Generator: Sketch 3.4.1 (15681) - http://www.bohemiancoding.com/sketch -->
    <title>support</title>
    <desc>Created with Sketch.</desc>
    <defs></defs>
    <g id="App-Page" stroke="none" stroke-width="1" fill="none" fill-rule="evenodd" sketch:type="MSPage">
        <g sketch:type="MSArtboardGroup" transform="translate(-1119.000000, -501.000000)" id="Card">
            <g sketch:type="MSLayerGroup" transform="translate(928.000000, 95.000000)">
                <g id="List" transform="translate(40.000000, 355.000000)" sketch:type="MSShapeGroup">
                    <g id="Support" transform="translate(0.000000, 49.000000)">
                        <g id="support" transform="translate(149.000000, 0.000000)">
                            <circle id="Support" stroke="#C9CDCF" stroke-width="2" cx="12" cy="12" r="10"></circle>
                            <circle id="Support-Copy" stroke="#C9CDCF" stroke-width="2" cx="12" cy="12" r="5"></circle>
                            <path d="M11,4 L13,4 L13,9 L11,9 L11,4 Z M11,15 L13,15 L13,20 L11,20 L11,15 Z M4,13 L4,11 L9,11 L9,13 L4,13 Z M15,13 L15,11 L20,11 L20,13 L15,13 Z" id="Rectangle-206" fill="#C9CDCF" transform="translate(12.000000, 12.000000) rotate(-45.000000) translate(-12.000000, -12.000000) "></path>
                        </g>
                    </g>
                </g>
            </g>
        </g>
    </g>
</svg>